<svg width="102" height="90" viewBox="0 0 102 90" fill="none" xmlns="http://www.w3.org/2000/svg">
<path d="M31.1201 26.2309C31.1201 26.2309 39.6779 32.8338 50.3099 35.6826C57.106 37.5036 63.1144 37.9146 68.1761 36.9053C70.4671 36.4498 72.2278 36.4031 73.587 36.7673C75.1576 37.1882 76.2178 38.1851 76.6187 39.5887C78.1035 45.0418 63.9689 57.1978 60.7572 60.4851C60.7572 60.4851 51.8051 61.8778 45.9808 60.9004C45.9204 60.8843 41.475 56.4526 36.8085 51.6376C30.3156 44.9399 28.124 35.1172 31.1201 26.2309Z" fill="url(#paint0_linear_24_1775)"/>
<path d="M61.5991 57.8265C63.6554 51.1187 63.0104 45.7935 62.9728 45.3298L62.9367 45.2229L62.947 45.0636C62.9498 43.12 62.5135 41.1237 61.6485 38.9152C57.19 28.1286 49.5606 23.1354 40.7236 17.3326C30.5061 10.6414 28.7293 2.29089 29.0258 -3.52741C29.5503 -13.8213 36.9959 -23.8486 43.6 -27.2314L45.743 -28.3423L46.1424 -25.9669C48.9349 -9.56696 56.4812 -4.14241 66.0357 2.7276C69.8954 5.47927 73.8818 8.36212 77.9051 12.1946C82.6748 16.7455 87.2375 22.3104 88.3918 32.0172C88.6764 34.459 88.3583 37.0958 87.4149 40.3752C85.7386 46.1478 82.4239 51.0277 77.8442 54.4669C74.0328 57.3343 69.0765 59.2792 63.5176 60.0904L60.7573 60.485L61.5991 57.8265Z" fill="url(#paint1_linear_24_1775)"/>
<path d="M46.9845 112.37C49.0408 105.662 48.4179 100.375 48.3582 99.8731L48.3221 99.7663L48.3405 99.5767C48.3433 97.6332 47.907 95.6368 47.042 93.4283C42.5835 82.6417 34.9541 77.6486 26.1171 71.8458C15.8996 65.1546 14.1228 56.804 14.4193 50.9857C14.9659 40.7302 22.4115 30.7029 29.0156 27.3201L31.1586 26.2092L31.558 28.5846C34.3505 44.9845 41.8968 50.4091 51.4513 57.2791C55.311 60.0307 59.2974 62.9136 63.3207 66.7461C68.0904 71.297 72.6531 76.8619 73.8074 86.5686C74.092 89.0105 73.7739 91.6473 72.8305 94.9266C71.1542 100.699 67.8476 105.549 63.2598 109.018C59.4484 111.886 54.4921 113.831 48.9332 114.642L46.1729 115.036L46.9845 112.37Z" fill="url(#paint2_linear_24_1775)"/>
<path d="M77.8441 54.4675C82.4238 51.0283 85.7385 46.1483 87.4148 40.3757C88.3501 37.1266 88.6763 34.4595 88.3917 32.0177C87.2455 22.2807 82.6747 16.7461 77.9051 12.1951C73.8516 8.35456 69.8954 5.47981 66.0357 2.72814C56.5032 -4.10355 48.9268 -9.53619 46.1343 -25.9361L45.7348 -28.3115C45.7348 -28.3115 33.5869 1.68113 59.7321 15.6214C92.3345 33.0094 60.7793 60.5239 60.7793 60.5239L63.5396 60.1293C69.0684 59.31 74.0246 57.3651 77.8441 54.4675Z" fill="url(#paint3_linear_24_1775)"/>
<path d="M63.2213 109.04C67.801 105.6 71.1157 100.721 72.7919 94.9479C73.7273 91.6988 74.0534 89.0318 73.7689 86.5899C72.6226 76.8529 68.0518 71.3183 63.2822 66.7674C59.2287 62.9268 55.2725 60.052 51.4128 57.3004C41.8583 50.4304 34.3039 45.036 31.5195 28.6059L31.1201 26.2305C31.1201 26.2305 18.9722 56.2231 45.1173 70.1634C77.7198 87.5514 46.1645 115.066 46.1645 115.066L48.9249 114.671C54.4536 113.852 59.4099 111.907 63.2213 109.04Z" fill="url(#paint4_linear_24_1775)"/>
<defs>
<linearGradient id="paint0_linear_24_1775" x1="27.347" y1="40.1361" x2="73.6713" y2="52.5487" gradientUnits="userSpaceOnUse">
<stop offset="0.05" stop-color="#4000B2"/>
<stop offset="0.27" stop-color="#4F00A3"/>
<stop offset="0.7" stop-color="#77007E"/>
<stop offset="0.99" stop-color="#970061"/>
</linearGradient>
<linearGradient id="paint1_linear_24_1775" x1="25.2029" y1="8.56498" x2="91.2283" y2="26.2564" gradientUnits="userSpaceOnUse">
<stop offset="7.45891e-08" stop-color="#BD0079"/>
<stop offset="0.42" stop-color="#A037AB"/>
<stop offset="0.77" stop-color="#8B5FCF"/>
<stop offset="0.95" stop-color="#846FDE"/>
</linearGradient>
<linearGradient id="paint2_linear_24_1775" x1="10.5846" y1="63.1221" x2="76.61" y2="80.8135" gradientUnits="userSpaceOnUse">
<stop offset="7.45891e-08" stop-color="#BD0079"/>
<stop offset="0.46" stop-color="#E03B37"/>
<stop offset="0.78" stop-color="#F6600F"/>
<stop offset="0.95" stop-color="#FF6F00"/>
</linearGradient>
<linearGradient id="paint3_linear_24_1775" x1="73.6992" y1="-20.8428" x2="52.4978" y2="58.282" gradientUnits="userSpaceOnUse">
<stop stop-color="#BD0079"/>
<stop offset="0.42" stop-color="#A037AB"/>
<stop offset="0.77" stop-color="#8B5FCF"/>
<stop offset="0.95" stop-color="#846FDE"/>
</linearGradient>
<linearGradient id="paint4_linear_24_1775" x1="59.0807" y1="33.713" x2="37.8793" y2="112.838" gradientUnits="userSpaceOnUse">
<stop offset="1.06556e-08" stop-color="#BD0079"/>
<stop offset="0.46" stop-color="#E03B37"/>
<stop offset="0.78" stop-color="#F6600F"/>
<stop offset="0.95" stop-color="#FF6F00"/>
</linearGradient>
</defs>
</svg>
