<svg width="102" height="84" viewBox="0 0 102 84" fill="none" xmlns="http://www.w3.org/2000/svg">
<path d="M31.1199 -10.7691C31.1199 -10.7691 39.6777 -4.1662 50.3097 -1.31736C57.1057 0.503638 63.1142 0.914599 68.1758 -0.094703C70.4669 -0.550187 72.2275 -0.596897 73.5868 -0.232699C75.1574 0.188154 76.2176 1.18513 76.6184 2.58875C78.1032 8.0418 63.9687 20.1978 60.757 23.4851C60.757 23.4851 51.8049 24.8778 45.9806 23.9004C45.9202 23.8843 41.4747 19.4526 36.8082 14.6376C30.3153 7.93988 28.1237 -1.88282 31.1199 -10.7691Z" fill="url(#paint0_linear_24_1781)"/>
<path d="M61.5988 20.8265C63.6552 14.1187 63.0102 8.79351 62.9726 8.32976L62.9365 8.22287L62.9468 8.0636C62.9496 6.12004 62.5133 4.12365 61.6483 1.91516C57.1898 -8.8714 49.5603 -13.8646 40.7234 -19.6674C30.5058 -26.3586 28.7291 -34.7091 29.0255 -40.5274C29.55 -50.8213 36.9957 -60.8486 43.5998 -64.2314L45.7427 -65.3423L46.1422 -62.9669C48.9347 -46.567 56.4809 -41.1424 66.0355 -34.2724C69.8952 -31.5207 73.8816 -28.6379 77.9049 -24.8054C82.6745 -20.2545 87.2372 -14.6896 88.3916 -4.98282C88.6761 -2.54101 88.3581 0.0958063 87.4146 3.37517C85.7384 9.1478 82.4236 14.0277 77.8439 17.4669C74.0325 20.3343 69.0763 22.2792 63.5173 23.0904L60.757 23.485L61.5988 20.8265Z" fill="url(#paint1_linear_24_1781)"/>
<path d="M46.9842 75.3699C49.0406 68.6621 48.4177 63.3752 48.358 62.8731L48.3219 62.7663L48.3403 62.5767C48.3431 60.6332 47.9068 58.6368 47.0418 56.4283C42.5833 45.6417 34.9538 40.6486 26.1169 34.8458C15.8993 28.1546 14.1226 19.804 14.419 13.9857C14.9656 3.73016 22.4113 -6.29709 29.0154 -9.67993L31.1583 -10.7908L31.5578 -8.41541C34.3503 7.98451 41.8965 13.4091 51.4511 20.2791C55.3108 23.0307 59.2972 25.9136 63.3205 29.7461C68.0901 34.297 72.6528 39.8619 73.8072 49.5686C74.0917 52.0105 73.7737 54.6473 72.8302 57.9266C71.154 63.6993 67.8473 68.549 63.2595 72.0184C59.4481 74.8858 54.4919 76.8307 48.9329 77.6419L46.1726 78.0365L46.9842 75.3699Z" fill="url(#paint2_linear_24_1781)"/>
<path d="M77.8439 17.4675C82.4236 14.0283 85.7383 9.14833 87.4145 3.3757C88.3499 0.126574 88.676 -2.54047 88.3915 -4.98228C87.2452 -14.7193 82.6744 -20.2539 77.9048 -24.8049C73.8513 -28.6454 69.8951 -31.5202 66.0354 -34.2719C56.503 -41.1035 48.9265 -46.5362 46.134 -62.9361L45.7346 -65.3115C45.7346 -65.3115 33.5867 -35.3189 59.7318 -21.3786C92.3343 -3.99062 60.779 23.5239 60.779 23.5239L63.5394 23.1293C69.0681 22.31 74.0244 20.3651 77.8439 17.4675Z" fill="url(#paint3_linear_24_1781)"/>
<path d="M63.221 72.0397C67.8007 68.6005 71.1154 63.7206 72.7917 57.9479C73.727 54.6988 74.0532 52.0318 73.7687 49.5899C72.6224 39.8529 68.0516 34.3183 63.282 29.7674C59.2285 25.9268 55.2723 23.052 51.4126 20.3004C41.858 13.4304 34.3037 8.03604 31.5193 -8.39412L31.1198 -10.7695C31.1198 -10.7695 18.9719 19.2231 45.1171 33.1634C77.7196 50.5514 46.1643 78.0658 46.1643 78.0658L48.9246 77.6713C54.4534 76.852 59.4096 74.9071 63.221 72.0397Z" fill="url(#paint4_linear_24_1781)"/>
<defs>
<linearGradient id="paint0_linear_24_1781" x1="27.3467" y1="3.13613" x2="73.671" y2="15.5487" gradientUnits="userSpaceOnUse">
<stop offset="0.05" stop-color="#4000B2"/>
<stop offset="0.27" stop-color="#4F00A3"/>
<stop offset="0.7" stop-color="#77007E"/>
<stop offset="0.99" stop-color="#970061"/>
</linearGradient>
<linearGradient id="paint1_linear_24_1781" x1="25.2027" y1="-28.435" x2="91.2281" y2="-10.7436" gradientUnits="userSpaceOnUse">
<stop offset="7.45891e-08" stop-color="#BD0079"/>
<stop offset="0.42" stop-color="#A037AB"/>
<stop offset="0.77" stop-color="#8B5FCF"/>
<stop offset="0.95" stop-color="#846FDE"/>
</linearGradient>
<linearGradient id="paint2_linear_24_1781" x1="10.5844" y1="26.1221" x2="76.6098" y2="43.8135" gradientUnits="userSpaceOnUse">
<stop offset="7.45891e-08" stop-color="#BD0079"/>
<stop offset="0.46" stop-color="#E03B37"/>
<stop offset="0.78" stop-color="#F6600F"/>
<stop offset="0.95" stop-color="#FF6F00"/>
</linearGradient>
<linearGradient id="paint3_linear_24_1781" x1="73.6989" y1="-57.8428" x2="52.4975" y2="21.282" gradientUnits="userSpaceOnUse">
<stop stop-color="#BD0079"/>
<stop offset="0.42" stop-color="#A037AB"/>
<stop offset="0.77" stop-color="#8B5FCF"/>
<stop offset="0.95" stop-color="#846FDE"/>
</linearGradient>
<linearGradient id="paint4_linear_24_1781" x1="59.0805" y1="-3.28703" x2="37.8791" y2="75.8377" gradientUnits="userSpaceOnUse">
<stop offset="1.06556e-08" stop-color="#BD0079"/>
<stop offset="0.46" stop-color="#E03B37"/>
<stop offset="0.78" stop-color="#F6600F"/>
<stop offset="0.95" stop-color="#FF6F00"/>
</linearGradient>
</defs>
</svg>
