<svg width="126" height="38" viewBox="0 0 126 38" fill="none" xmlns="http://www.w3.org/2000/svg">
<g clip-path="url(#clip0_24_1761)">
<path d="M77.9055 29.4743C70.6503 34.822 60.1342 37.6752 51.08 37.6752C38.3846 37.6752 26.9555 32.9797 18.309 25.17C17.6296 24.5559 18.2383 23.719 19.0535 24.1972C28.3848 29.6265 39.9226 32.8927 51.8409 32.8927C59.8787 32.8927 68.7209 31.2297 76.8512 27.7787C78.0794 27.257 79.1066 28.583 77.9055 29.4743Z" fill="#FF9900"/>
<path d="M80.9216 26.0236C79.9977 24.8388 74.7913 25.4638 72.4544 25.741C71.7425 25.8279 71.6338 25.2084 72.2751 24.7627C76.4217 21.8443 83.2259 22.6867 84.0194 23.6649C84.8129 24.6486 83.8129 31.4691 79.9162 34.7245C79.3184 35.2244 78.7478 34.9582 79.0141 34.2951C79.8891 32.1104 81.851 27.2137 80.9216 26.0236Z" fill="#FF9900"/>
<path d="M72.6173 4.15974V1.32284C72.6173 0.893506 72.9434 0.605469 73.3347 0.605469H86.0355C86.4431 0.605469 86.7692 0.898941 86.7692 1.32284V3.75214C86.7638 4.15974 86.4214 4.69234 85.8127 5.53471L79.2313 14.9313C81.6769 14.8715 84.2584 15.2356 86.4758 16.4856C86.9757 16.7682 87.1116 17.1812 87.1497 17.5888V20.6159C87.1497 21.029 86.6931 21.5126 86.2149 21.2626C82.3074 19.2138 77.1172 18.991 72.7967 21.2844C72.3565 21.5235 71.8945 21.0453 71.8945 20.6322V17.7573C71.8945 17.2953 71.9 16.5073 72.3619 15.8062L79.9868 4.87168H73.351C72.9434 4.87168 72.6173 4.58365 72.6173 4.15974Z" fill="#221F1F"/>
<path d="M26.2867 21.8603H22.4226C22.0531 21.8332 21.7596 21.556 21.7324 21.2027V1.37163C21.7324 0.974895 22.0639 0.659681 22.477 0.659681H26.0802C26.4552 0.675975 26.7541 0.964022 26.7812 1.32271V3.91505H26.8519C27.7921 1.40966 29.5583 0.241211 31.9387 0.241211C34.3572 0.241211 35.868 1.40966 36.9549 3.91505C37.8897 1.40966 40.0146 0.241211 42.2918 0.241211C43.9113 0.241211 45.683 0.909675 46.7645 2.40964C47.9873 4.07809 47.7373 6.50195 47.7373 8.62691L47.7319 21.143C47.7319 21.5397 47.4004 21.8603 46.9873 21.8603H43.1287C42.7429 21.8332 42.4331 21.5234 42.4331 21.143V10.6323C42.4331 9.79536 42.5092 7.70845 42.3244 6.91498C42.0364 5.58349 41.1722 5.2085 40.0527 5.2085C39.1179 5.2085 38.1397 5.83349 37.743 6.83347C37.3462 7.83345 37.3843 9.50732 37.3843 10.6323V21.143C37.3843 21.5397 37.0528 21.8603 36.6397 21.8603H32.7811C32.3898 21.8332 32.0855 21.5234 32.0855 21.143L32.08 10.6323C32.08 8.42039 32.4442 5.16502 29.6996 5.16502C26.9225 5.16502 27.0312 8.33887 27.0312 10.6323V21.143C27.0312 21.5397 26.6997 21.8603 26.2867 21.8603Z" fill="#221F1F"/>
<path d="M97.7038 0.241211C103.437 0.241211 106.541 5.16502 106.541 11.4258C106.541 17.4745 103.111 22.2734 97.7038 22.2734C92.0735 22.2734 89.0083 17.3495 89.0083 11.2138C89.0083 5.04002 92.1115 0.241211 97.7038 0.241211ZM97.7364 4.29004C94.8886 4.29004 94.7093 8.17039 94.7093 10.5888C94.7093 13.0127 94.6712 18.1865 97.7038 18.1865C100.698 18.1865 100.84 14.0127 100.84 11.4692C100.84 9.79536 100.769 7.7954 100.264 6.20848C99.8287 4.82807 98.9646 4.29004 97.7364 4.29004Z" fill="#221F1F"/>
<path d="M113.975 21.8603H110.127C109.741 21.8332 109.432 21.5234 109.432 21.143L109.426 1.30641C109.459 0.942283 109.78 0.659681 110.171 0.659681H113.752C114.089 0.675975 114.366 0.904242 114.442 1.21402V4.24656H114.513C115.595 1.53466 117.111 0.241211 119.779 0.241211C121.513 0.241211 123.203 0.866199 124.29 2.57812C125.301 4.16504 125.301 6.83347 125.301 8.7519V21.2353C125.257 21.5832 124.937 21.8603 124.556 21.8603H120.681C120.328 21.8332 120.035 21.5723 119.997 21.2353V10.4638C119.997 8.29539 120.247 5.12154 117.578 5.12154C116.638 5.12154 115.774 5.75197 115.345 6.70847C114.801 7.9204 114.731 9.1269 114.731 10.4638V21.143C114.725 21.5397 114.388 21.8603 113.975 21.8603Z" fill="#221F1F"/>
<path d="M62.4926 12.3875V11.5505C59.6991 11.5505 56.7481 12.1484 56.7481 15.4418C56.7481 17.1102 57.6122 18.2406 59.0959 18.2406C60.1828 18.2406 61.1556 17.5722 61.7698 16.4852C62.5306 15.1483 62.4926 13.8929 62.4926 12.3875ZM66.3892 21.8058C66.1338 22.034 65.7642 22.0503 65.4762 21.8982C64.1936 20.833 63.9654 20.3384 63.2589 19.3221C61.1393 21.4851 59.6394 22.1318 56.8894 22.1318C53.6395 22.1318 51.1069 20.1264 51.1069 16.1102C51.1069 12.9744 52.808 10.8386 55.2264 9.79515C57.3242 8.87125 60.2535 8.70821 62.4926 8.45278V7.95279C62.4926 7.03433 62.5632 5.9474 62.0252 5.15394C61.5524 4.44199 60.6502 4.14852 59.8567 4.14852C58.384 4.14852 57.0688 4.90394 56.7481 6.46912C56.6829 6.81695 56.4275 7.15933 56.0797 7.17563L52.3297 6.77347C52.0145 6.70282 51.6667 6.44739 51.7537 5.9637C52.6178 1.42032 56.7209 0.0507812 60.3948 0.0507812C62.2752 0.0507812 64.7316 0.550771 66.2153 1.97465C68.0957 3.73005 67.9164 6.07239 67.9164 8.62125V14.6429C67.9164 16.4526 68.6663 17.2461 69.3729 18.2243C69.6229 18.5721 69.6772 18.9906 69.362 19.2515C68.574 19.9091 67.1718 21.1319 66.4001 21.8166L66.3892 21.8058Z" fill="#221F1F"/>
<path d="M11.8363 12.3875V11.5505C9.04289 11.5505 6.09187 12.1484 6.09187 15.4418C6.09187 17.1102 6.95598 18.2406 8.43964 18.2406C9.52658 18.2406 10.4994 17.5722 11.1135 16.4852C11.8744 15.1483 11.8363 13.8929 11.8363 12.3875ZM15.733 21.8058C15.4775 22.034 15.108 22.0503 14.8199 21.8982C13.5374 20.833 13.3091 20.3384 12.6026 19.3221C10.4831 21.4851 8.98312 22.1318 6.23317 22.1318C2.98324 22.1318 0.450684 20.1264 0.450684 16.1102C0.450684 12.9744 2.15173 10.8386 4.57016 9.79515C6.66794 8.87125 9.59723 8.70821 11.8363 8.45278V7.95279C11.8363 7.03433 11.907 5.9474 11.3689 5.15394C10.8961 4.44199 9.99396 4.14852 9.2005 4.14852C7.72771 4.14852 6.41251 4.90394 6.09187 6.46912C6.02665 6.81695 5.77122 7.15933 5.42341 7.17563L1.67348 6.77347C1.35827 6.70282 1.01045 6.44739 1.09741 5.9637C1.96152 1.42032 6.06469 0.0507812 9.73853 0.0507812C11.6189 0.0507812 14.0754 0.550771 15.5591 1.97465C17.4395 3.73005 17.2601 6.07239 17.2601 8.62125V14.6429C17.2601 16.4526 18.0101 17.2461 18.7166 18.2243C18.9666 18.5721 19.0209 18.9906 18.7057 19.2515C17.9177 19.9091 16.5156 21.1319 15.7438 21.8166L15.733 21.8058Z" fill="#221F1F"/>
</g>
<defs>
<clipPath id="clip0_24_1761">
<rect width="125" height="37.728" fill="white" transform="translate(0.375)"/>
</clipPath>
</defs>
</svg>
