<svg width="26" height="26" viewBox="0 0 26 26" fill="none" xmlns="http://www.w3.org/2000/svg">
<g clip-path="url(#clip0_24_927)">
<path d="M22.0397 4.69893C20.3949 3.94424 18.631 3.38819 16.7868 3.0697C16.7533 3.06355 16.7197 3.07892 16.7024 3.10962C16.4756 3.51309 16.2243 4.0394 16.0483 4.45311C14.0648 4.15614 12.0914 4.15614 10.1486 4.45311C9.97258 4.03023 9.7122 3.51309 9.48432 3.10962C9.46704 3.07993 9.43347 3.06455 9.3999 3.0697C7.55675 3.38714 5.79294 3.94318 4.14708 4.69893C4.13281 4.70508 4.12062 4.71531 4.1125 4.72862C0.766936 9.72685 -0.149597 14.6023 0.3 19.4172C0.302016 19.4407 0.315272 19.4632 0.333569 19.4776C2.54088 21.0986 4.67908 22.0827 6.77752 22.735C6.81109 22.7453 6.84667 22.733 6.86804 22.7053C7.36442 22.0275 7.8069 21.3127 8.18629 20.561C8.20867 20.517 8.1873 20.4648 8.14153 20.4474C7.43967 20.1811 6.77137 19.8565 6.12848 19.4879C6.07762 19.4582 6.07354 19.3855 6.12036 19.3506C6.25565 19.2493 6.39098 19.1438 6.52016 19.0373C6.54355 19.0178 6.57611 19.0137 6.60358 19.026C10.827 20.9543 15.3993 20.9543 19.5728 19.026C19.6003 19.0127 19.6329 19.0168 19.6573 19.0362C19.7865 19.1427 19.9218 19.2492 20.0581 19.3506C20.1048 19.3854 20.1018 19.4582 20.051 19.4878C19.4081 19.8636 18.7398 20.1811 18.0369 20.4463C17.9911 20.4637 17.9708 20.517 17.9932 20.561C18.3807 21.3116 18.8232 22.0263 19.3104 22.7043C19.3308 22.733 19.3674 22.7453 19.401 22.735C21.5096 22.0827 23.6478 21.0986 25.8551 19.4776C25.8744 19.4632 25.8866 19.4417 25.8887 19.4182C26.4268 13.8516 24.9874 9.01617 22.0731 4.72963C22.0661 4.71531 22.0539 4.70508 22.0397 4.69893ZM8.81709 16.4854C7.54556 16.4854 6.49783 15.318 6.49783 13.8844C6.49783 12.4507 7.5252 11.2834 8.81709 11.2834C10.1191 11.2834 11.1567 12.461 11.1363 13.8844C11.1363 15.318 10.1089 16.4854 8.81709 16.4854ZM17.392 16.4854C16.1206 16.4854 15.0728 15.318 15.0728 13.8844C15.0728 12.4507 16.1002 11.2834 17.392 11.2834C18.6941 11.2834 19.7316 12.461 19.7113 13.8844C19.7113 15.318 18.6941 16.4854 17.392 16.4854Z" fill="#F17E2F"/>
</g>
<defs>
<clipPath id="clip0_24_927">
<rect width="25.8065" height="25.8065" fill="white" transform="translate(0.193359)"/>
</clipPath>
</defs>
</svg>
