<svg width="20" height="21" viewBox="0 0 20 21" fill="none" xmlns="http://www.w3.org/2000/svg">
<g clip-path="url(#clip0_24_964)">
<path d="M16.9309 4.02346C15.6562 3.43857 14.2892 3.00764 12.86 2.7608C12.8339 2.75604 12.8079 2.76795 12.7945 2.79174C12.6187 3.10443 12.424 3.51232 12.2876 3.83295C10.7504 3.60279 9.22101 3.60279 7.7153 3.83295C7.5789 3.50522 7.3771 3.10443 7.2005 2.79174C7.1871 2.76873 7.16108 2.75682 7.13507 2.7608C5.70663 3.00682 4.33968 3.43775 3.06413 4.02346C3.05308 4.02822 3.04362 4.03615 3.03733 4.04647C0.444522 7.9201 -0.265791 11.6985 0.0826466 15.4301C0.0842091 15.4483 0.0944826 15.4658 0.108662 15.4769C1.81933 16.7332 3.47644 17.4959 5.10273 18.0014C5.12874 18.0094 5.15632 17.9999 5.17288 17.9784C5.55757 17.4531 5.9005 16.8991 6.19452 16.3166C6.21187 16.2825 6.1953 16.242 6.15983 16.2285C5.61589 16.0222 5.09796 15.7706 4.59972 15.4849C4.5603 15.4619 4.55714 15.4055 4.59343 15.3785C4.69827 15.3 4.80315 15.2182 4.90327 15.1357C4.9214 15.1206 4.94663 15.1174 4.96792 15.1269C8.24105 16.6213 11.7846 16.6213 15.0191 15.1269C15.0404 15.1166 15.0656 15.1198 15.0845 15.1349C15.1847 15.2174 15.2895 15.2999 15.3951 15.3785C15.4314 15.4055 15.429 15.4619 15.3896 15.4849C14.8914 15.7761 14.3735 16.0221 13.8287 16.2277C13.7933 16.2412 13.7775 16.2824 13.7949 16.3165C14.0952 16.8983 14.4382 17.4522 14.8157 17.9776C14.8315 17.9998 14.8599 18.0094 14.8859 18.0014C16.5201 17.4959 18.1772 16.7332 19.8878 15.4769C19.9028 15.4658 19.9123 15.4491 19.9139 15.4309C20.3309 11.1168 19.2154 7.36932 16.9568 4.04725C16.9514 4.03615 16.9419 4.02822 16.9309 4.02346ZM6.68339 13.1579C5.69796 13.1579 4.88597 12.2533 4.88597 11.1422C4.88597 10.0311 5.68218 9.12639 6.68339 9.12639C7.69241 9.12639 8.49655 10.039 8.48077 11.1422C8.48077 12.2533 7.68452 13.1579 6.68339 13.1579ZM13.329 13.1579C12.3436 13.1579 11.5316 12.2533 11.5316 11.1422C11.5316 10.0311 12.3278 9.12639 13.329 9.12639C14.338 9.12639 15.1421 10.039 15.1264 11.1422C15.1264 12.2533 14.3381 13.1579 13.329 13.1579Z" fill="white"/>
</g>
<defs>
<clipPath id="clip0_24_964">
<rect width="20" height="20" fill="white" transform="translate(0 0.381836)"/>
</clipPath>
</defs>
</svg>
