<svg width="26" height="26" viewBox="0 0 26 26" fill="none" xmlns="http://www.w3.org/2000/svg">
<path fill-rule="evenodd" clip-rule="evenodd" d="M9.40855 12.9033C9.40855 11.745 9.47056 10.6312 9.58476 9.58498C10.631 9.47076 11.745 9.40874 12.9033 9.40874C14.0615 9.40874 15.1754 9.47075 16.2216 9.58496C16.3358 10.6312 16.3978 11.745 16.3978 12.9033C16.3978 14.0616 16.3358 15.1755 16.2216 16.2218C15.1753 16.336 14.0615 16.398 12.9033 16.398C11.745 16.398 10.631 16.336 9.58478 16.2218C9.47057 15.1755 9.40855 14.0616 9.40855 12.9033ZM7.79564 12.9033C7.79564 11.8401 7.84546 10.8055 7.93984 9.81636C6.76551 10.0208 5.71 10.2946 4.81523 10.6199C3.79635 10.9904 3.02855 11.4126 2.53055 11.8407C2.02993 12.2711 1.88176 12.633 1.88176 12.9034C1.88176 13.1737 2.02993 13.5356 2.53055 13.966C3.02855 14.3942 3.79635 14.8163 4.81523 15.1868C5.71001 15.5122 6.76552 15.7859 7.93986 15.9904C7.84547 15.0012 7.79564 13.9665 7.79564 12.9033ZM4.26404 9.10415C5.38141 8.69783 6.69731 8.37239 8.14749 8.14772C8.37216 6.69745 8.69761 5.38147 9.10395 4.26403C9.49083 3.20012 9.96486 2.27764 10.5256 1.58891C6.04956 2.52479 2.52465 6.04976 1.58887 10.5258C2.2776 9.96508 3.20009 9.49104 4.26404 9.10415ZM15.2807 1.58887C15.8415 2.2776 16.3155 3.20009 16.7024 4.26403C17.1087 5.38146 17.4342 6.69743 17.6588 8.14769C19.1091 8.37236 20.4251 8.69781 21.5425 9.10415C22.6064 9.49104 23.5289 9.96508 24.2177 10.5258C23.2819 6.04968 19.7568 2.52467 15.2807 1.58887ZM24.2176 15.2809C23.5289 15.8417 22.6064 16.3157 21.5425 16.7026C20.4251 17.1089 19.1091 17.4344 17.6588 17.659C17.4341 19.1092 17.1087 20.4251 16.7024 21.5425C16.3155 22.6064 15.8415 23.5289 15.2807 24.2177C19.7568 23.2819 23.2817 19.757 24.2176 15.2809ZM10.5256 24.2176C9.96486 23.5289 9.49083 22.6064 9.10395 21.5425C8.69763 20.4251 8.37219 19.1092 8.14752 17.659C6.69733 17.4343 5.38142 17.1089 4.26404 16.7026C3.20012 16.3157 2.27765 15.8417 1.58892 15.2809C2.52478 19.7569 6.04964 23.2817 10.5256 24.2176ZM12.9033 7.79584C11.8401 7.79584 10.8053 7.84567 9.81612 7.94006C10.0206 6.76564 10.2944 5.71005 10.6197 4.81523C10.9903 3.79634 11.4124 3.02855 11.8405 2.53055C12.2709 2.02993 12.6328 1.88176 12.9032 1.88176C13.1736 1.88176 13.5354 2.02993 13.9658 2.53055C14.394 3.02855 14.8161 3.79634 15.1866 4.81523C15.512 5.71005 15.7857 6.76562 15.9902 7.94004C15.0011 7.84566 13.9664 7.79584 12.9033 7.79584ZM18.0107 12.9033C18.0107 11.8401 17.9609 10.8055 17.8665 9.81632C19.0409 10.0208 20.0965 10.2946 20.9913 10.6199C22.0102 10.9904 22.778 11.4126 23.276 11.8407C23.7766 12.2711 23.9248 12.633 23.9248 12.9034C23.9248 13.1737 23.7766 13.5356 23.276 13.966C22.778 14.3942 22.0102 14.8163 20.9913 15.1868C20.0965 15.5122 19.0409 15.7859 17.8665 15.9904C17.9609 15.0012 18.0107 13.9665 18.0107 12.9033ZM12.9033 18.0109C13.9664 18.0109 15.001 17.9611 15.9902 17.8667C15.7857 19.041 15.512 20.0965 15.1866 20.9913C14.8161 22.0102 14.394 22.778 13.9658 23.276C13.5354 23.7766 13.1736 23.9248 12.9032 23.9248C12.6328 23.9248 12.2709 23.7766 11.8405 23.276C11.4124 22.778 10.9903 22.0102 10.6197 20.9913C10.2944 20.0965 10.0206 19.041 9.81616 17.8667C10.8054 17.9611 11.8401 18.0109 12.9033 18.0109Z" fill="#F17E2F"/>
</svg>
