<svg width="30" height="30" viewBox="0 0 30 30" fill="none" xmlns="http://www.w3.org/2000/svg">
<path fill-rule="evenodd" clip-rule="evenodd" d="M10.9375 15.0002C10.9375 13.6537 11.0096 12.3589 11.1424 11.1426C12.3587 11.0099 13.6536 10.9378 15.0002 10.9378C16.3466 10.9378 17.6415 11.0099 18.8577 11.1426C18.9905 12.3588 19.0625 13.6537 19.0625 15.0002C19.0625 16.3467 18.9904 17.6416 18.8577 18.8579C17.6414 18.9907 16.3466 19.0628 15.0002 19.0628C13.6536 19.0628 12.3587 18.9907 11.1424 18.8579C11.0096 17.6416 10.9375 16.3467 10.9375 15.0002ZM9.06255 15.0002C9.06255 13.7643 9.12046 12.5615 9.23017 11.4116C7.86501 11.6493 6.63799 11.9676 5.59782 12.3458C4.41336 12.7765 3.5208 13.2672 2.94188 13.7649C2.35991 14.2653 2.18766 14.686 2.18766 15.0003C2.18766 15.3146 2.35991 15.7353 2.94188 16.2356C3.5208 16.7333 4.41336 17.224 5.59782 17.6548C6.63799 18.033 7.86503 18.3512 9.2302 18.5889C9.12047 17.439 9.06255 16.2361 9.06255 15.0002ZM4.95705 10.5837C6.256 10.1113 7.78573 9.73302 9.47157 9.47184C9.73275 7.78589 10.1111 6.25606 10.5835 4.95705C11.0332 3.72025 11.5843 2.64787 12.2361 1.84722C7.03272 2.93518 2.93502 7.03296 1.84717 12.2364C2.64782 11.5845 3.72022 11.0334 4.95705 10.5837ZM17.7639 1.84717C18.4158 2.64782 18.9669 3.72022 19.4166 4.95705C19.889 6.25606 20.2673 7.78587 20.5285 9.4718C22.2144 9.73298 23.7443 10.1113 25.0433 10.5837C26.2801 11.0334 27.3525 11.5845 28.1531 12.2364C27.0653 7.03287 22.9675 2.93504 17.7639 1.84717ZM28.1531 17.7642C27.3524 18.4161 26.2801 18.9671 25.0433 19.4169C23.7442 19.8892 22.2144 20.2676 20.5285 20.5287C20.2673 22.2146 19.889 23.7443 19.4166 25.0433C18.9669 26.2801 18.4158 27.3525 17.7639 28.1531C22.9674 27.0653 27.0651 22.9676 28.1531 17.7642ZM12.2361 28.1531C11.5843 27.3524 11.0332 26.2801 10.5835 25.0433C10.1111 23.7443 9.73278 22.2146 9.4716 20.5287C7.78575 20.2675 6.25601 19.8892 4.95705 19.4169C3.72025 18.9671 2.64787 18.4161 1.84723 17.7642C2.93517 22.9675 7.03282 27.0651 12.2361 28.1531ZM15.0002 9.06277C13.7642 9.06277 12.5613 9.1207 11.4114 9.23043C11.6491 7.86516 11.9673 6.63805 12.3456 5.59782C12.7763 4.41336 13.267 3.5208 13.7647 2.94187C14.265 2.35991 14.6857 2.18765 15 2.18765C15.3144 2.18765 15.735 2.35991 16.2354 2.94187C16.7331 3.5208 17.2238 4.41336 17.6545 5.59782C18.0328 6.63804 18.351 7.86515 18.5887 9.23041C17.4388 9.12069 16.2361 9.06277 15.0002 9.06277ZM20.9375 15.0002C20.9375 13.7643 20.8796 12.5615 20.7699 11.4116C22.1352 11.6493 23.3623 11.9675 24.4025 12.3458C25.5869 12.7765 26.4795 13.2672 27.0584 13.7649C27.6404 14.2653 27.8127 14.686 27.8127 15.0003C27.8127 15.3146 27.6404 15.7353 27.0584 16.2356C26.4795 16.7333 25.5869 17.224 24.4025 17.6547C23.3623 18.033 22.1352 18.3513 20.7699 18.589C20.8796 17.439 20.9375 16.2361 20.9375 15.0002ZM15.0002 20.9378C16.236 20.9378 17.4388 20.8799 18.5887 20.7701C18.351 22.1353 18.0328 23.3623 17.6545 24.4025C17.2238 25.5869 16.7331 26.4795 16.2354 27.0584C15.735 27.6404 15.3144 27.8127 15 27.8127C14.6857 27.8127 14.265 27.6404 13.7647 27.0584C13.267 26.4795 12.7763 25.5869 12.3456 24.4025C11.9673 23.3623 11.6491 22.1353 11.4114 20.7701C12.5613 20.8798 13.7642 20.9378 15.0002 20.9378Z" fill="#A7A7A7"/>
</svg>
