<svg width="30" height="61" viewBox="0 0 30 61" fill="none" xmlns="http://www.w3.org/2000/svg">
<path d="M4.50763 24.8006C4.50763 24.8006 8.88629 26.628 13.7179 26.628C16.8063 26.628 19.4006 26.1196 21.432 25.1166C22.3517 24.6632 23.0929 24.4434 23.7106 24.4434C24.4244 24.4434 24.9871 24.7456 25.3166 25.2952C26.5657 27.4386 21.9536 34.1986 20.9654 35.9573C20.9654 35.9573 17.3279 37.5648 14.7474 37.8121C14.7199 37.8121 12.3316 36.4382 9.80595 34.9268C6.29203 32.8246 4.24683 28.9088 4.50763 24.8006Z" fill="url(#paint0_linear_24_968)"/>
<path d="M21.0201 34.7341C21.1299 31.6564 20.2515 29.4718 20.1828 29.2794L20.1554 29.2382L20.1416 29.1695C19.922 28.3451 19.5102 27.5482 18.8926 26.7101C15.7767 22.6431 11.9745 21.3928 7.56843 19.9364C2.47601 18.2601 0.773957 14.9214 0.238635 12.4207C-0.708474 7.99653 1.30928 2.89909 3.72509 0.714467L4.50749 0L4.94673 0.961782C7.99395 7.59808 11.8098 9.04075 16.6415 10.8681C18.5906 11.5963 20.6083 12.3658 22.7496 13.5337C25.289 14.9214 27.8558 16.7625 29.448 20.747C29.8461 21.75 30.0108 22.9042 29.9833 24.4018C29.9284 27.0398 29.0774 29.4855 27.5264 31.464C26.2361 33.1128 24.3556 34.5005 22.0908 35.476L20.9652 35.9569L21.0201 34.7341Z" fill="url(#paint1_linear_24_968)"/>
<path d="M21.0201 59.5202C21.1299 56.4425 20.2651 54.2716 20.1828 54.0655L20.1553 54.0243L20.1416 53.9419C19.922 53.1175 19.5102 52.3206 18.8925 51.4825C15.7766 47.4155 11.9745 46.1652 7.56837 44.7088C2.47594 43.0325 0.773891 39.6938 0.238569 37.1931C-0.694814 32.7827 1.32294 27.6852 3.73875 25.5006L4.52115 24.7861L4.96039 25.7479C8.00761 32.3842 11.8235 33.8269 16.6551 35.6543C18.6042 36.3825 20.622 37.1519 22.7633 38.3198C25.3026 39.7075 27.8694 41.5486 29.4617 45.5331C29.8597 46.5361 30.0245 47.6903 29.997 49.1879C29.9421 51.826 29.0911 54.2579 27.54 56.2502C26.2497 57.8989 24.3693 59.2866 22.1044 60.2622L20.9789 60.7431L21.0201 59.5202Z" fill="url(#paint2_linear_24_968)"/>
<path d="M27.5263 31.464C29.0774 29.4854 29.9284 27.0398 29.9833 24.4017C30.0108 22.9178 29.8461 21.75 29.448 20.7469C27.8557 16.7487 25.2889 14.9213 22.7496 13.5336C20.5946 12.3657 18.5906 11.5963 16.6414 10.8681C11.8235 9.05443 7.99391 7.61175 4.94669 0.975454L4.50745 0.0136719C4.50745 0.0136719 2.76422 14.1107 15.4335 17.051C31.2324 20.7195 20.9789 35.9706 20.9789 35.9706L22.1045 35.4897C24.3556 34.5142 26.2361 33.1265 27.5263 31.464Z" fill="url(#paint3_linear_24_968)"/>
<path d="M27.5263 56.2648C29.0774 54.2863 29.9284 51.8406 29.9833 49.2026C30.0108 47.7187 29.8461 46.5508 29.448 45.5478C27.8557 41.5495 25.2889 39.7221 22.7496 38.3344C20.5946 37.1666 18.5906 36.3971 16.6414 35.6689C11.8098 33.8415 7.99391 32.4126 4.94669 25.7626L4.50745 24.8008C4.50745 24.8008 2.76422 38.8978 15.4335 41.8381C31.2324 45.5066 20.9789 60.7577 20.9789 60.7577L22.1045 60.2768C24.3556 59.3013 26.2361 57.9136 27.5263 56.2648Z" fill="url(#paint4_linear_24_968)"/>
<defs>
<linearGradient id="paint0_linear_24_968" x1="4.4876" y1="31.1251" x2="25.5393" y2="31.1251" gradientUnits="userSpaceOnUse">
<stop offset="0.05" stop-color="#4000B2"/>
<stop offset="0.27" stop-color="#4F00A3"/>
<stop offset="0.7" stop-color="#77007E"/>
<stop offset="0.99" stop-color="#970061"/>
</linearGradient>
<linearGradient id="paint1_linear_24_968" x1="-0.00843723" y1="17.9822" x2="29.9962" y2="17.9822" gradientUnits="userSpaceOnUse">
<stop offset="7.45891e-08" stop-color="#BD0079"/>
<stop offset="0.42" stop-color="#A037AB"/>
<stop offset="0.77" stop-color="#8B5FCF"/>
<stop offset="0.95" stop-color="#846FDE"/>
</linearGradient>
<linearGradient id="paint2_linear_24_968" x1="-0.00850335" y1="42.7746" x2="29.9961" y2="42.7746" gradientUnits="userSpaceOnUse">
<stop offset="7.45891e-08" stop-color="#BD0079"/>
<stop offset="0.46" stop-color="#E03B37"/>
<stop offset="0.78" stop-color="#F6600F"/>
<stop offset="0.95" stop-color="#FF6F00"/>
</linearGradient>
<linearGradient id="paint3_linear_24_968" x1="17.2128" y1="0.0033808" x2="17.2128" y2="35.9609" gradientUnits="userSpaceOnUse">
<stop stop-color="#BD0079"/>
<stop offset="0.42" stop-color="#A037AB"/>
<stop offset="0.77" stop-color="#8B5FCF"/>
<stop offset="0.95" stop-color="#846FDE"/>
</linearGradient>
<linearGradient id="paint4_linear_24_968" x1="17.2128" y1="24.7967" x2="17.2128" y2="60.7543" gradientUnits="userSpaceOnUse">
<stop offset="1.06556e-08" stop-color="#BD0079"/>
<stop offset="0.46" stop-color="#E03B37"/>
<stop offset="0.78" stop-color="#F6600F"/>
<stop offset="0.95" stop-color="#FF6F00"/>
</linearGradient>
</defs>
</svg>
