<svg width="30" height="26" viewBox="0 0 30 26" fill="none" xmlns="http://www.w3.org/2000/svg">
<path fill-rule="evenodd" clip-rule="evenodd" d="M26.8945 6.25616C26.9336 6.41658 26.9531 6.67725 26.9531 7.03818C26.9531 9.92564 26.2695 12.7128 24.9023 15.3998C23.4961 18.2471 21.5234 20.513 18.9844 22.1973C16.2109 24.0822 13.0273 25.0246 9.43359 25.0246C5.99609 25.0246 2.85156 24.0822 0 22.1973C0.429687 22.2374 0.917969 22.2575 1.46484 22.2575C4.31641 22.2575 6.875 21.3552 9.14062 19.5505C7.77344 19.5505 6.57227 19.1394 5.53711 18.3173C4.50195 17.4952 3.78906 16.4625 3.39844 15.2193C3.78906 15.2594 4.16016 15.2795 4.51172 15.2795C5.05859 15.2795 5.60547 15.2193 6.15234 15.099C4.74609 14.7782 3.57422 14.0363 2.63672 12.8733C1.69922 11.7103 1.23047 10.3868 1.23047 8.903V8.78269C2.08984 9.30404 3.00781 9.58476 3.98438 9.62486C3.16406 9.02331 2.5 8.26134 1.99219 7.33896C1.48437 6.41658 1.23047 5.40396 1.23047 4.30111C1.23047 3.19826 1.52344 2.14554 2.10938 1.14295C3.63281 3.10803 5.49805 4.67207 7.70508 5.83507C9.91211 6.99808 12.2656 7.63974 14.7656 7.76005C14.6875 7.2788 14.6484 6.79756 14.6484 6.31632C14.6484 5.19342 14.9219 4.1407 15.4688 3.15816C16.0156 2.17562 16.7578 1.40363 17.6953 0.842176C18.6328 0.280726 19.6484 0 20.7422 0C21.6406 0 22.4707 0.180466 23.2324 0.541399C23.9941 0.902331 24.668 1.38357 25.2539 1.98513C26.6602 1.7044 27.9687 1.20311 29.1797 0.481243C28.7109 1.96508 27.8125 3.12808 26.4844 3.97026C27.6562 3.80984 28.8281 3.46896 30 2.94761C29.1406 4.23093 28.1055 5.33378 26.8945 6.25616Z" fill="#A7A7A7"/>
</svg>
