<svg width="26" height="22" viewBox="0 0 26 22" fill="none" xmlns="http://www.w3.org/2000/svg">
<path fill-rule="evenodd" clip-rule="evenodd" d="M23.2318 5.66094C23.2654 5.79893 23.2822 6.02317 23.2822 6.33365C23.2822 8.81748 22.6941 11.2151 21.5181 13.5264C20.3084 15.9758 18.6115 17.9249 16.4273 19.3738C14.0416 20.9952 11.303 21.8059 8.2116 21.8059C5.25461 21.8059 2.54964 20.9952 0.0966797 19.3738C0.466303 19.4083 0.88633 19.4255 1.35676 19.4255C3.80972 19.4255 6.01066 18.6493 7.95958 17.0969C6.78351 17.0969 5.75024 16.7433 4.85978 16.0361C3.96933 15.3289 3.35609 14.4406 3.02007 13.3712C3.35609 13.4057 3.67531 13.4229 3.97773 13.4229C4.44816 13.4229 4.91859 13.3712 5.38902 13.2677C4.17934 12.9917 3.17128 12.3535 2.36482 11.3531C1.55837 10.3526 1.15515 9.21421 1.15515 7.93779V7.8343C1.89439 8.28277 2.68405 8.52425 3.5241 8.55875C2.81845 8.04128 2.24722 7.38583 1.81039 6.59238C1.37356 5.79893 1.15515 4.92786 1.15515 3.97918C1.15515 3.03049 1.40716 2.12493 1.9112 1.26248C3.22168 2.95287 4.82618 4.29828 6.7247 5.29872C8.62323 6.29915 10.6478 6.85111 12.7983 6.95461C12.7311 6.54063 12.6975 6.12666 12.6975 5.71269C12.6975 4.74675 12.9327 3.84119 13.4031 2.99599C13.8736 2.1508 14.512 1.48672 15.3185 1.00375C16.1249 0.520781 16.9986 0.279297 17.9394 0.279297C18.7123 0.279297 19.4263 0.434537 20.0816 0.745016C20.7368 1.0555 21.3164 1.46947 21.8205 1.98693C23.0301 1.74545 24.1558 1.31423 25.1975 0.69327C24.7943 1.96969 24.0214 2.97012 22.8789 3.69457C23.887 3.55658 24.8951 3.26335 25.9031 2.81488C25.1639 3.91881 24.2734 4.86749 23.2318 5.66094Z" fill="#F17E2F"/>
</svg>
